<?xml version="1.0" encoding="UTF-8"?>
<svg version="1.1" xmlns="http://www.w3.org/2000/svg" width="64" height="64">
<path d="M0 0 C1.69814192 0.89906549 3.38007578 1.82923517 5.046875 2.78515625 C5.97371094 3.31560547 6.90054688 3.84605469 7.85546875 4.39257812 C8.81066406 4.94365234 9.76585937 5.49472656 10.75 6.0625 C12.20599609 6.89491211 12.20599609 6.89491211 13.69140625 7.74414062 C20.85956743 11.85956743 20.85956743 11.85956743 22 13 C25.19391015 39.42073453 25.19391015 39.42073453 20.68457031 47.29785156 C17.32401166 50.53706214 13.33255406 52.0031563 8.92382812 53.33935547 C6.08416603 54.31449831 3.81984004 55.97240767 1.375 57.6875 C-0.8515625 59.19921875 -0.8515625 59.19921875 -3 60 C-6.58394414 58.80082391 -9.77601998 57.09070212 -13.046875 55.21484375 C-13.97371094 54.68439453 -14.90054687 54.15394531 -15.85546875 53.60742188 C-16.81066406 53.05634766 -17.76585937 52.50527344 -18.75 51.9375 C-19.72066406 51.38255859 -20.69132812 50.82761719 -21.69140625 50.25585938 C-28.85956743 46.14043257 -28.85956743 46.14043257 -30 45 C-33.19391015 18.57926547 -33.19391015 18.57926547 -28.68457031 10.70214844 C-25.32401166 7.46293786 -21.33255406 5.9968437 -16.92382812 4.66064453 C-14.08416603 3.68550169 -11.81984004 2.02759233 -9.375 0.3125 C-5.45201765 -2.35099854 -4.22734334 -1.93005823 0 0 Z " fill="#E6E7EB" transform="translate(36,3)"/>
<path d="M0 0 C3.50256152 0.22842793 5.38930255 0.36894596 7.875 2.9375 C9 5 9 5 9 7 C9.5775 7.268125 10.155 7.53625 10.75 7.8125 C13 9 13 9 14.8125 10.6875 C17.06851592 12.26470144 17.06851592 12.26470144 20.4375 12.25 C25.17410364 10.58803381 25.65103716 8.38289035 27.75 4.046875 C29 2 29 2 32.0625 0.75 C35.58880494 1.05011106 36.58895713 1.41958635 39 4 C40.74424286 9.56941686 40.94825837 16.48498846 39 22 C35.56900456 26.07653617 30.62546064 28.17941607 25.79541016 30.19482422 C23.78951107 31.03085521 23.78951107 31.03085521 21.38671875 32.78515625 C18.04287027 34.4871806 16.59170639 34.07151145 13 33 C-2.87536937 26.51367527 -2.87536937 26.51367527 -5.890625 20.10791016 C-7.18460898 14.08579259 -6.08237682 8.81162298 -2.9765625 3.61328125 C-1 1 -1 1 0 0 Z " fill="#FD787B" transform="translate(15,23)"/>
<path d="M0 0 C3.24818078 1.49650948 6.30202958 3.2368517 9.375 5.0625 C10.20644531 5.51560547 11.03789063 5.96871094 11.89453125 6.43554688 C14.22021567 7.81606398 16.13626213 9.03729754 18 11 C18.74405227 13.99179487 18.4627258 15.88498359 18 19 C17.46375 18.67 16.9275 18.34 16.375 18 C13.4608939 16.77300796 11.13132292 16.85766714 8 17 C7.731875 17.721875 7.46375 18.44375 7.1875 19.1875 C4.86795491 24.68115942 4.86795491 24.68115942 3 27 C-0.1875 28.1875 -0.1875 28.1875 -4 28 C-8.16136497 25.82387337 -11.271531 23.26081173 -13.625 19.1875 C-14.87280947 16.72128675 -14.87280947 16.72128675 -17.875 15.875 C-21.23011469 15.68802349 -21.23011469 15.68802349 -23.875 18.4375 C-24.57625 19.283125 -25.2775 20.12875 -26 21 C-27.03146006 17.34022692 -27.25772439 14.62224623 -26 11 C-22.2385954 7.46295988 -17.38851537 5.20507321 -12.79541016 2.93408203 C-10.80642495 1.94770745 -10.80642495 1.94770745 -8.38671875 0.18359375 C-5.02845734 -1.48179611 -3.5853295 -1.09955809 0 0 Z " fill="#FEFDFD" transform="translate(36,8)"/>
<path d="M0 0 C3.50256152 0.22842793 5.38930255 0.36894596 7.875 2.9375 C9 5 9 5 9 7 C8.154375 7.474375 7.30875 7.94875 6.4375 8.4375 C2.08140147 11.12376076 -0.02870311 15.42809973 -2.58203125 19.734375 C-3.04996094 20.48203125 -3.51789062 21.2296875 -4 22 C-4.33 22 -4.66 22 -5 22 C-5.10883596 19.62374823 -5.18766696 17.25256024 -5.25 14.875 C-5.28351562 14.20984375 -5.31703125 13.5446875 -5.3515625 12.859375 C-5.45230508 7.72150366 -4.1665871 4.9763632 -1 1 C-0.67 0.67 -0.34 0.34 0 0 Z " fill="#FE829E" transform="translate(15,23)"/>
<path d="M0 0 C1.375 2.0625 1.375 2.0625 2 4 C0.205625 4.0309375 0.205625 4.0309375 -1.625 4.0625 C-5.25153999 4.51022099 -6.83517222 5.39910102 -9.1875 8.1875 C-10.13836091 9.44836762 -11.07595418 10.71935058 -12 12 C-12.94986139 13.15286606 -13.90756482 14.29934097 -14.875 15.4375 C-15.57625 16.283125 -16.2775 17.12875 -17 18 C-19.3203125 17.80859375 -19.3203125 17.80859375 -22 17 C-23.6171875 14.78515625 -23.6171875 14.78515625 -24.875 12.0625 C-25.30554688 11.16660156 -25.73609375 10.27070312 -26.1796875 9.34765625 C-26.45039063 8.57292969 -26.72109375 7.79820313 -27 7 C-26.67 6.34 -26.34 5.68 -26 5 C-25.154375 5.845625 -24.30875 6.69125 -23.4375 7.5625 C-20.80785576 9.71459093 -20.0127002 9.99866314 -16.4375 10.375 C-11.92989818 8.57195927 -11.02760706 6.31210806 -9.04296875 2.03125 C-6.93376853 -2.07655567 -3.97954604 -1.07779372 0 0 Z " fill="#FDCB5C" transform="translate(52,25)"/>
<path d="M0 0 C2.75 0.5625 2.75 0.5625 4.19140625 2.27734375 C7.75 7.88390313 7.75 7.88390313 7.75 10.5625 C1.72463002 12.12909619 1.72463002 12.12909619 -1.05078125 10.515625 C-2.51579304 9.27088944 -3.89065712 7.92184288 -5.25 6.5625 C-3.01595745 0.75398936 -3.01595745 0.75398936 0 0 Z " fill="#44A6E6" transform="translate(31.25,24.4375)"/>
</svg>
